<?xml version="1.0" ?><svg id="Layer_1" style="enable-background:new 0 0 32 32;" version="1.1" viewBox="0 0 32 32" xml:space="preserve" xmlns="http://www.w3.org/2000/svg" xmlns:xlink="http://www.w3.org/1999/xlink"><g><g><path d="M12.2961063,14.1826973H3.7486601C2.2305934,14.1826973,1,15.413291,1,16.9313583v9.5227757h14.0447664v-9.5227757    C15.0447664,15.413291,13.8141737,14.1826973,12.2961063,14.1826973z"/></g><g><rect height="6.147541" width="6.0766077" x="24.9233913" y="17.4101563"/></g><g><rect height="1.8524591" width="3.783102" x="26.0701447" y="24.4839268"/></g><g><path d="M27.9619141,18.4101563c-0.5527344,0-1-0.4477539-1-1v-5.0302734c0-4.9458008-4.0234375-8.9697266-8.9697266-8.9697266    S9.0224609,7.434082,9.0224609,12.3798828v1.8027344c0,0.5522461-0.4472656,1-1,1s-1-0.4477539-1-1v-1.8027344    c0-6.0488281,4.9208984-10.9697266,10.9697266-10.9697266s10.9697266,4.9208984,10.9697266,10.9697266v5.0302734    C28.9619141,17.9624023,28.5146484,18.4101563,27.9619141,18.4101563z"/></g><path d="M2.890625,27.4101563v2.1796875c0,0.5522461,0.4472656,1,1,1s1-0.4477539,1-1v-2.1796875H2.890625z"/><path d="M11.1542969,27.4101563v2.1796875c0,0.5522461,0.4472656,1,1,1s1-0.4477539,1-1v-2.1796875H11.1542969z"/></g></svg>